<?xml version="1.0" encoding="UTF-8"?>
<svg id="Layer_1" xmlns="http://www.w3.org/2000/svg" version="1.1" viewBox="0 0 360 144">
  <!-- Generator: Adobe Illustrator 29.8.1, SVG Export Plug-In . SVG Version: 2.1.1 Build 2)  -->
  <defs>
    <style>
      .st0 {
        fill: #231f20;
      }
    </style>
  </defs>
  <g>
    <path class="st0" d="M176.2,120.1c0,.6,0,1.1-.3,1.7s-.5,1-1,1.4c-.5.4-1.2.8-2.2,1-.9.3-2.1.4-3.6.4s-1.4,0-2,0c-.6,0-1.2,0-1.7,0-.5,0-.9,0-1.2,0s-.5,0-.7,0v-14.6c0-.3,0-.5.2-.6s.3-.2.6-.3c.3,0,.9-.1,1.6-.2s1.8,0,3.1,0,2.5.1,3.3.4,1.5.6,2,1,.8.9,1,1.3.3,1,.3,1.5,0,.9-.2,1.3c-.1.4-.3.7-.5,1-.2.3-.5.5-.7.7-.3.2-.5.3-.8.4.5.2.9.4,1.3.6.4.3.7.6.9.9.2.3.4.7.5,1.1.1.4.2.8.2,1.2ZM174,112.9c0-.9-.4-1.6-1.2-2.1s-2-.8-3.8-.8-2,0-2.7,0-1.1.1-1.2.1v5.5h5.1c1.4,0,2.3-.3,2.9-.8.6-.5.9-1.2.9-2.1ZM174.6,120.1c0-.4,0-.8-.2-1.2-.1-.4-.4-.7-.7-1-.3-.3-.7-.5-1.2-.6s-1.1-.2-1.8-.2h-5.5v6c.2,0,.6,0,1.3.1.6,0,1.5,0,2.6,0s1.9,0,2.6-.2c.7-.1,1.3-.3,1.7-.6.4-.3.8-.6,1-1,.2-.4.3-.9.3-1.4Z"/>
    <path class="st0" d="M186,124.4v-14.6c0-.2,0-.4.2-.6.1-.2.3-.2.6-.2s.3,0,.4,0c.1,0,.2,0,.3.1v13.9h8.8v1.4h-10.3Z"/>
    <path class="st0" d="M219.7,116.7c0,1.2-.2,2.3-.6,3.3-.4,1-1,1.9-1.7,2.6s-1.6,1.3-2.6,1.7c-1,.4-2.1.6-3.2.6s-2.2-.2-3.2-.6c-1-.4-1.8-1-2.6-1.7s-1.3-1.6-1.7-2.6c-.4-1-.6-2.1-.6-3.3s.2-2.3.6-3.2c.4-1,1-1.8,1.7-2.6s1.6-1.3,2.6-1.7c1-.4,2.1-.6,3.2-.6s2.2.2,3.2.6c1,.4,1.9,1,2.6,1.7s1.3,1.6,1.7,2.6c.4,1,.6,2.1.6,3.2ZM218.1,116.7c0-1-.2-1.9-.5-2.7s-.8-1.5-1.4-2.1c-.6-.6-1.3-1.1-2.1-1.4-.8-.3-1.6-.5-2.6-.5s-1.8.2-2.5.5c-.8.3-1.5.8-2,1.4s-1,1.3-1.4,2.1-.5,1.7-.5,2.7.2,1.9.5,2.7c.3.8.8,1.6,1.4,2.2.6.6,1.3,1.1,2,1.4.8.3,1.6.5,2.5.5s1.8-.2,2.6-.5c.8-.3,1.5-.8,2.1-1.4.6-.6,1-1.3,1.4-2.2.3-.8.5-1.7.5-2.7Z"/>
    <path class="st0" d="M244.9,116.7c0,1.2-.2,2.3-.6,3.3-.4,1-1,1.9-1.7,2.6s-1.6,1.3-2.6,1.7c-1,.4-2.1.6-3.2.6s-2.2-.2-3.2-.6c-1-.4-1.8-1-2.6-1.7s-1.3-1.6-1.7-2.6c-.4-1-.6-2.1-.6-3.3s.2-2.3.6-3.2c.4-1,1-1.8,1.7-2.6s1.6-1.3,2.6-1.7c1-.4,2.1-.6,3.2-.6s2.2.2,3.2.6c1,.4,1.9,1,2.6,1.7s1.3,1.6,1.7,2.6c.4,1,.6,2.1.6,3.2ZM243.2,116.7c0-1-.2-1.9-.5-2.7s-.8-1.5-1.4-2.1c-.6-.6-1.3-1.1-2.1-1.4-.8-.3-1.6-.5-2.6-.5s-1.8.2-2.5.5c-.8.3-1.5.8-2,1.4s-1,1.3-1.4,2.1-.5,1.7-.5,2.7.2,1.9.5,2.7c.3.8.8,1.6,1.4,2.2.6.6,1.3,1.1,2,1.4.8.3,1.6.5,2.5.5s1.8-.2,2.6-.5c.8-.3,1.5-.8,2.1-1.4.6-.6,1-1.3,1.4-2.2.3-.8.5-1.7.5-2.7Z"/>
    <path class="st0" d="M262.7,119.7c.2-.3.4-.8.7-1.3.3-.6.6-1.2.9-1.8.3-.7.7-1.3,1-2s.7-1.4,1-2c.3-.6.6-1.2.8-1.6.2-.5.4-.8.5-1,.1-.2.3-.5.5-.7s.6-.3,1-.3.5,0,.7.1.3.1.3.2c.2,2.6.3,5.1.4,7.6.1,2.5.3,5,.4,7.6h-1.5c0-.5,0-1.1-.1-1.8,0-.7,0-1.5-.1-2.4,0-.9,0-1.8-.1-2.7,0-.9-.1-1.8-.2-2.7s0-1.7-.1-2.4c0-.7,0-1.3-.1-1.8,0,.2-.3.5-.5,1-.3.5-.6,1.1-.9,1.8-.3.7-.7,1.4-1.1,2.2-.4.8-.8,1.5-1.1,2.3-.4.7-.7,1.4-1,1.9-.3.6-.5,1-.7,1.3h-1.6c-.1-.3-.3-.6-.6-1.1-.2-.5-.5-1-.8-1.7-.3-.6-.6-1.3-1-2-.4-.7-.7-1.4-1.1-2.1-.4-.7-.7-1.3-1-1.9s-.6-1.1-.8-1.6c0,1.1-.1,2.2-.2,3.3s-.1,2.3-.2,3.5c0,1.2-.1,2.4-.2,3.5,0,1.2-.1,2.3-.2,3.3h-1.5c.1-2.4.2-4.8.4-7.2.1-2.4.3-4.8.4-7.2,0-.3.2-.6.4-.7s.5-.3.7-.3.6,0,.8.2c.2.1.3.2.5.3,0,.1.2.4.4.8.2.5.5,1,.8,1.6.3.6.7,1.4,1.1,2.1s.8,1.5,1.1,2.2c.4.7.7,1.4,1,2,.3.6.6,1.1.7,1.4Z"/>
    <path class="st0" d="M292.4,110.7c0,.2,0,.4-.2.5-.1.2-.2.3-.4.4-.1-.1-.3-.3-.6-.5-.3-.2-.6-.4-1.1-.6-.4-.2-1-.3-1.5-.5-.6-.1-1.3-.2-2-.2-3,0-4.5,1-4.5,2.9s0,.8.3,1.1c.2.3.4.6.7.8.3.2.7.4,1.2.6.5.2,1,.3,1.6.4l2.7.5c1.6.3,2.8.8,3.5,1.4s1.2,1.6,1.2,2.7-.1,1.2-.4,1.8c-.3.5-.6,1-1.2,1.4-.5.4-1.2.7-2,.9-.8.2-1.7.3-2.8.3s-1.6,0-2.3-.2c-.7-.1-1.3-.3-1.8-.5s-1-.4-1.4-.6-.7-.4-1-.6l.8-1.2c.2.2.5.3.9.5.4.2.8.4,1.3.6.5.2,1,.3,1.6.5.6.1,1.3.2,2,.2,1.4,0,2.6-.2,3.4-.7s1.2-1.3,1.2-2.3,0-1-.3-1.3c-.2-.3-.5-.6-.8-.8-.3-.2-.7-.4-1.2-.5-.5-.1-.9-.2-1.4-.3l-2.7-.5c-.7-.1-1.3-.3-1.8-.5-.6-.2-1.1-.5-1.5-.8-.4-.3-.8-.7-1-1.2-.2-.5-.4-1-.4-1.6s.1-1.1.3-1.7c.2-.5.6-1,1-1.4.5-.4,1.1-.7,1.9-.9s1.7-.3,2.9-.3,1.5,0,2.2.1c.6,0,1.1.2,1.6.3.4.1.8.3,1,.4.3.1.4.3.6.3.2.2.4.3.4.5,0,.1.1.3.1.4Z"/>
  </g>
  <path class="st0" d="M130.9,109.6c-.5,0-.6,1.9-.6,2.3-.7,3.7-4.3,5.6-7.5,6.9-2.8,1.1-5.8,1.5-8.7,1.6-3.9.2-7.9,0-11.9-.9-4.1-1-8.3-2.9-12.1-6.2-.7-.6-1.5-1.3-2.2-2.1-4.8-5.5-4.3-12.3-2.9-19.5,1.7-8.7,4.7-17.3,8-25.5,6.2-15.7,14-30.6,22.7-45.1.8-1.3.5-1.8-1-1.9-.8,0-1.2.3-1.6.8-1,1.3-2.1,2.5-3,3.9-8.8,12.5-15.7,26.1-21.9,40-1.2,2.7-2,5.6-3.4,8.1-5,8.9-10.5,17.6-16.7,25.7-3.6,4.8-7.4,9.4-12.2,13-1.7,1.3-3.4,2.3-5.4,2.9-14.9,5-5.6-35.8-3.8-42,2-6.6,3.7-13.4,6.3-19.8,1.6-3.9,4.6-9.5,1.3-13.3-2.8-3.2-9.4-3.3-13.3-3.2-3.4.1-6.9.6-10.3.9-1.8.2-3.5.5-5.3.6-.3,0-.6.2-.6.9,0,.4.2.6.6.6.2,0,.3,0,.5,0,1.9-.2,3.7-.4,5.6-.5,4-.4,7.9-.9,11.9-.5,2.1.2,4.4.7,6.1,1.9,2.5,1.7,1.3,4.2.3,6.6-3.6,8.6-5.9,17.6-8.4,26.5-2.5,9-4.4,18.4-3.7,27.8.3,3.6.9,7.2,2.8,10.5,2.2,3.8,5.8,5.6,10.1,4.9,2.3-.3,4.4-1.3,6.3-2.5,2.6-1.8,4.8-3.9,6.8-6.3,4.9-5.6,8.9-11.8,12.8-17.9,1.8-2.9,3.6-5.9,5.5-8.9,0,0,.1.1.2.2,0,.4-.2.8-.4,1.3-3.7,9.8-4.3,22.7,2.7,31.4,1.5,1.9,3.5,3.5,5.4,5,6.3,5,14.8,5.7,22.6,5.1,7-.5,16.2-2.3,19.1-9.7,0-.2.2-.4.2-.6.2-.7.3-3.2-1-3.1Z"/>
  <g>
    <path class="st0" d="M191.8,60.2l.9-.7c-.2.2-.6.5-.9.7Z"/>
    <path class="st0" d="M334.4,94c-3.8-6.5-12.3-2-17.9-1-1,.2-2,.4-3,.7-3.3.6-6.6,1.1-10,1.3-1.5,0-3,0-4.4,0,0,0-.2,0-.3,0-.2,0-.5,0-.6,0-.8,0-1.5-.2-2.3-.3-2.4-.5-4.7-1.5-6-3.2-.6-.9-1.1-1.9-1.3-3-.2-1.1-.3-2.3-.2-3.5,0-1.2.3-2.3.4-3.5.2-.2.5-.3.9-.2,2.4.3,4.7-.3,6.9-1,3.6-1.2,7-2.9,10.2-4.9,3.9-2.5,7.5-5.4,10.9-8.6,3.7-3.6,7.2-7.4,10.1-11.7,1.5-2.2,2.7-4.5,3.3-7.1.5-1.9.6-3.8.2-5.8-.3-1.6-1.1-2.8-2.6-3.6-2.8-1.5-5.6-1.4-8.4-.4-2.8,1-5.3,2.4-7.7,4.1-3.8,2.7-7.1,6-10.4,9.4-5.7,6-10,12.9-13.2,20.4-.8,1.7-1.5,3.5-2.1,5.3-.3.7-.3.7-1,.3-.6-.4-1.4-.6-2.1-.8-2.4-.4-4.4.5-6.1,2.1-.5.5-1,1-1.4,1.5,0,0-.2,0-.2,0-8.8,1-20.4,8.6-23.8,10.2-1.5.7-3.1,1.2-4.8,1.4-1.2.1-2.4-.2-3.2-1.2-2.1-2.7-2.2-5.4-.9-8.4.3-.6.6-.9,1.4-.7,1,.3,2.1.2,3.1-.1,2.1-.7,3.8-2,5.4-3.5.3-.3.4-.5.6-.9.4-.9.3-1.7-.5-2.3-1.3-.9-2.7-1.5-4.3-1-4,1.2-7.1,3.5-8.6,7.6-3.3,3.2-9,9-12.8,6-2.9-1.5-1.4-7-4.4-8.5-2.4-1.3-6.1,3.9-7.6,3.8-.3-.4.5-2.4,1-4.5,2.9-10.1-5.7-14.4-12.9-6.6-2.8,2.6-5,6.8-6.5,8.8-.1.1-.3.2-.4.3-.2,0-.4.2-.6.2-.2,0-.3,0-.5-.3-1.2-1.6-2.3-.7-2.4,1.7-5.8,3-13.9,8.4-17.4,10.1-1.4.7-2.8,1.3-4.4,1.3-.8,0-1.4-.4-1.7-1.1-.3-.8-.5-1.6-.5-2.4,0-1.9.3-3.8,1.1-5.6.6-1.5,1.5-2.9,2.3-4.3.6-1.1.5-1.5-.6-2.1-.3-.2-.6-.4-1-.3-.6.2-.9-.1-1.4-.4-1.6-.9-3.2-1.1-4.9-.1-2,1.2-3.4,2.8-4.3,4.5-.2,0-.3.2-.5.3-4.2,2.7-8.3,5.5-12.3,8.5-2.8,2.2-5.6,4.5-8.9,6-2.3,1-4.1,0-4.3-2.5,0-.5,0-1.1,0-1.6.4-3.9,1.2-7.7,2.7-11.3,5.8-14.2,13.2-27.4,21.7-40.1.4-.6.9-.6,1.5-.5,3,.6,5.9,1.2,8.8,1.7,4.9.9,9.9,1.7,14.9,1.9,3,.2,6,.1,8.9-.1,2.6-.2,5.6-.4,8-1.6.5-.2,3.3-2.3,2.6-2.9-.2-.2-.6-.2-.8,0-.9.3-1.3,1.2-2.1,1.6-2.5,1.2-5.5,1.5-8.2,1.7-3,.3-5.9.3-8.9.2-7.7-.3-15.2-1.9-22.7-3.4-.8-.2-.7-.5-.3-1,1.1-1.6,2.3-3.3,3.5-5,.3-.4.8-.9.3-1.5-.4-.5-1-.6-1.7-.6-.6.1-1,.5-1.4,1-1.4,1.7-2.7,3.6-3.9,5.4-.4.6-.8.7-1.4.6-2.6-.5-5.1-1-7.7-1.5-7.4-1.2-14.8-1.7-22.3-.7-3.4.4-6.8,1.2-9.8,2.8-1.1.6-2.1,1.2-2.7,2.4-.4.8,0,1.4.9,1.7.5.2,1.3.5,1.1-.7,0-.2.3-.4.5-.6,1-1,2.3-1.6,3.6-2.1,1.8-.6,3.8-1.2,5.7-1.5,10.1-1.6,20.1-.7,30,1.2,1,.2.5.6.3,1-1.6,2.5-3.2,5-4.8,7.5-5.5,8.7-10.9,17.4-14.8,26.9-.7,1.8-1.4,3.6-1.9,5.5-1.7.8-3.4,1.7-4.9,2.7-2.8,1.7-5.6,3.5-8.7,4.9-1.5.7-3.1,1.5-4.8,1.8-1.8.3-2.2-.1-2-1.8v-.4c.2-1.4.6-2.6,1.2-3.8.8-1.7,1.7-3.4,2.5-5.1.4-.9.8-1.7,1-2.7.3-1.2-.2-2.2-1.1-3-.9-.8-1.8-.4-2.7,0-1,.5-1.8,1.2-2.6,2-2.9,2.6-5.7,5.4-8.4,8.1-.5.5-1,1-1.8,1.2,0-.8.3-1.4.6-1.9.7-1.6,1.6-3,2.6-4.4.9-1.2.6-2.3-.5-3-.5-.3-1-.3-1.4.1-2.3,2.2-3.7,4.8-3.6,8.1,0,1,.4,1.9,1.1,2.7.8.9,1.5,1,2.4.3.4-.3.8-.5,1.1-.9,2.7-2.7,5.1-5.5,8-8,1.2-1,2.3-2,4.1-2.6-.7,1.7-1.6,3.1-2.4,4.4-1.5,2.6-2.2,5.4-1.9,8.3.2,2.5,2.1,4.7,5.3,3.6,1.8-.6,3.5-1.4,5.1-2.3,3.1-1.7,6.1-3.6,9.1-5.4.7-.4,1.4-.8,2.1-1.2-.8,3.1-1.3,6.3-1.4,9.6-.2,4.8,3.6,7.3,8,5.2,1.5-.8,3-1.7,4.4-2.7,5.1-3.5,9.9-7.4,15.1-10.8-.4,1.4-.6,2.8-.6,4.4,0,1.5,1.7,2.4,3.1,1.7.5-.3,1-.6,1.4-1.1.6-.5,1.2-1.1,1.8-1.8.2.5.2,1,.2,1.4.1,1.1.3,2.3.8,3.3,1.8,3.5,5.5,4.2,8.6,2.9,4.5-1.9,11.8-7.7,18-11.1,0,.1,0,.2,0,.3.2,1.3.5,3.1,1.4,4.2,1.5,1.7,3.2-2.3,3.6-3.2,1.7-3.4,3-6.7,5.6-9.5,1.6-1.7,3.3-3.4,5.5-4.5,2-1,4.9-1.2,6.2,1.3.3.6.4,1.4.3,2.1-.4,3.8-3,7-3.1,10.9,0,1.6,1.4,3.2,3.3,1.2,1.2-1.3,4.9-6.5,6.7-3.6.9,1.4.9,3.1,1.9,4.6.9,1.3,2.3,2.5,3.9,2.7,3.1.4,6.2-1.8,8.4-3.7,1.1-.9,2-1.9,3-2.9-.3,1.8.1,3.6,1.1,5.2,2.7,4.3,5.8,5.6,10.7,3.8,4.8-1.8,14.4-9,23.9-10.9-.7,1-1.3,2.1-1.9,3.2-.8,1.6-1.3,3.2-1.2,5,0,1.4.6,2,2,2.2.9.2,1.8,0,2.5-.6.4-.3.8-.6,1.2-1,6.8-6.1,5.5-4.5,7.3-6.2,0,.2,0,.4,0,.6,0,1.4,0,2.9.3,4.3.4,1.4,1,2.9,2,4.1,1,1.2,2.3,2.1,3.7,2.6,1.4.6,2.8.9,4.1,1,2.8.3,5.5.2,8.1-.1,3.7-.5,7.4-1.1,11.1-1.9v-.2c.7-.1,1.4-.3,2-.4,4.8-.7,13-5,15.9.7.5,1.2,2.3.4,1.7-.8ZM289.7,79c2.3-6.3,5.2-12.4,9-18,4.1-6.2,9-11.7,14.8-16.5,2.1-1.7,4.3-3.2,6.7-4.5,1.3-.6,2.6-1.2,4.2-1.5,1.9-.3,3.6.6,4.3,2.4.5,1.2.6,2.5.6,3.8,0,2.9-1,5.5-2.3,8-2.2,4.1-5.1,7.7-8.4,11.1-3,3-6.1,5.9-9.6,8.3-4.1,2.9-8.3,5.3-13.1,6.9-1.7.6-3.4,1.1-5.1,1.1-1.3,0-1.4,0-.9-1.2ZM251.6,75.9c-.6,2-4.2,4.2-6.3,4,.9-1.9,4.4-4.1,6.3-4ZM168.7,80c-1.7,2.8-3.4,5.6-5.9,7.7-.4.3-.8.6-1.4,1,0-1.2.2-2.1.5-2.8,1-2.5,2.4-4.6,4.4-6.3.4-.3.9-.5,1.3-.8.3-.2.6-.2.9.2.2.3.4.6.2,1ZM285,81.6c-2.9,2.4-5.5,5.2-8.3,7.7-.3.3-.7.5-1,.8-.2.2-.4.4-.7.3-.3-.1-.2-.4-.2-.6,0-1.2.4-2.3.9-3.4,1.2-2.8,2.9-5.1,5.3-7,.6-.4,1.2-.8,1.9-1,.8-.3,1-.2,1.5.5.5.6.7,1.4.9,2.1.1.3,0,.5-.3.7Z"/>
  </g>
</svg>