<?xml version="1.0" encoding="UTF-8"?>
<svg id="Layer_1" xmlns="http://www.w3.org/2000/svg" version="1.1" viewBox="0 0 216 216">
  <!-- Generator: Adobe Illustrator 29.8.1, SVG Export Plug-In . SVG Version: 2.1.1 Build 2)  -->
  <defs>
    <style>
      .st0 {
        fill: #dd2530;
      }

      .st1 {
        fill: #231f20;
      }

      .st2 {
        fill: #fff;
      }
    </style>
  </defs>
  <path class="st0" d="M73,110.3c.1-.5,0-.2.6-.5,1-.6,3.6-1.3,4.7-.9,1,.3,2.1,0,3.1-.2,2.5-.3,2.2,2.7,2.1,4.3-.1,2.2,1,4.6-2.6,6.5-2.7,1.4-4,3.4-5.3,1.4s-2.4-3.4-2.9-5.6.1-2.4.5-3.5-.3-1.1-.2-1.5Z"/>
  <path class="st0" d="M179,109.2c0-.7-.5-1.3-.3-1.9.4-1.3,1.9-2.5,1.6-4v-.3c-.5-2-2.5-3.4-2.8-5.6-1.1-3.9.5-7.1-4.8-7.9-1.2-.3-1.9-1.8-1.6-3,.5-1.6-.4-3.1-1.2-4.5-.3-.4-.3-.7,0-1.1.9-1.1.8-3,.2-4.3-1.9-3.1-3-5.8-5.9-7.9-1-.6-1.3-1.8-2-2.6-.5-.5-.9-.9-1.5-1.4-1.5-1.2-3.4-1.5-4.4-3.1,0-.8,0-2.1-.6-2.9-.7-2.6-3.8-2.6-5.7-3.9-1-.7-1.3-2.1-2.6-2.8-2.4-1.2-3.6-2.7-5.5-4-3.4-.9-6.7-2.5-10.2-3.1-1,0-1.4.7-2.2,1.1-1.6.5-2.5,1.5-4,2.7-.6.3-2.1.9-2.7,1.2-1.2.9-1.5.9-1.9,2.6,0,1.8-.3,2.9-.4,4.7,0,.8.2,2,.2,2.9.3,3.7-1.7,1.4-2.4-.2-.3-.8-.7-2.1-1.5-2.9-.9-1.1-2.2-1.9-3-2.9-.6-1.1-1.3-2.7-2.8-2.5-1.9,1.1-1.7,5.4-3.9,5.7-2.8.3-2.9,4.2-1.9,6.2.5,1,2.2,1.3,1.7,2.6-.7,1.4-1.6.8-3,1.8-2.6,1.6-3.9,5.1-2.8,8.1.7,2.7-1.9,5.6-1.3,8.1.4,1.4-.3,2.6-.6,3.9-.1,1.3.7,1.8.9,3.3.3,1.8-.7,3.9,0,5.6,0,.3.2.7.3,1,.3,1.4.7,2.9.6,4.4.3.9.3,1.4.5,2.2.4.8,1.4,1.7,2.2,2.2,2.5,2.4,6.2,1.9,9.4,1.7,1.9.2,4.9.7,6.6,1.5.6.3-.4,1.3.4,1.4.9.1,1.4,1,1.7,1.7.2.8,1.5,1.1,1.7,1.9-.5,2.2-1,5-.4,7.2.1,1.9-.4,4.1.9,5.8.6.6,1.2,1.1,1.8,1.6,1.3,1,1.7,2.4,2.4,3.8,1.4,1.5,2.8,2.4,4.9,2.9.8.2,1.2-.6,1.4-.5.5.4.4,1.3.8,1.9.5.9,1.4,1.3,2.3,1.2.6-.2,1.1-.3,1.6,0,.6.5.9,1,1.7.4,2.3-1.5,5.8.6,8.2.7.9.2.9,1.8,2,1.9,1.6-.2,3.1-.7,4.8.2,1.8,1.3,2.4-.3,3.5-1.6,1.2-1.6,3-.3,4.7-.6.9-.2,1.6-.7,2.2-1.5.5-3.3,2-6.6,2.7-9.9.5-1.3,2.2-2.6,2.5-3.8.7-1.7,0-2.3,1.2-3.2.4-.4.3-1.2.5-1.7.6-1.5,2.3-2,3.7-2.7,1.3-.8,2.5-2.1,2.7-3.7.3-1.5-.6-2.8-.6-4.1ZM101.4,79.3h0s0,0,0,0c0,0,0,0,0,0ZM108.5,108s0,0,0,0c0,0,0,0,0,0,0,0,0,0,0,0ZM112.4,107.6h0s0,0,0,0c0,0,0,0,0,0ZM108,66.8s0,0,0,0h0c0,0,0,0,0,0,0,0,0,0,0,.1,0,0,0,0,0,0ZM145.4,70.9h0s0,0,0,0c0,0,0,0,0,0Z"/>
  <g>
    <path class="st1" d="M123.6,46.4c4.8-5.2,11.2-2.9,16.8,0,1.9.9,3.6,2.4,5.1,3.8,2.4,2.2,5.7,2.8,8.3,4.9,3,2.4,2.4,6.2,6.4,7.8,1.2,1,1,2.3,1.9,3.9,1.3,2.3,2.1,4.6,3.9,6.7,1.2,1.4,2.2,3.3,1.8,5.2-.3,1.6-1.1,3-1.1,4.7,0,1.4.6,2.6.5,3.8,0,.9-.4,2,.1,2.8.5.5,2.3.3,3.5,1,3,1.3,1.8,4.8,2,7.3.9,3.6,3.3,4.6,1.5,8.7-1.1,2.7.3,6.1-1.9,8.3-1.3,1.4-3.2,2.2-4.5,3.5-1.5,1.7-2.6,3.8-3.8,5.8-2.3,3-3.5,4.8-3.5,8.9,0,2.5-2.2,4.6-4.7,5.1-1.4.3-2.8,0-3.9.3-1.6.3-2.7,1.5-4,2.3-1.1.7-2.3,1-3.6,1-1.8,0-3.6-.3-5.3,0-2,.2-3.9,1.3-5.9.9-2.9-.7-5-3.3-6.6-5.6-1.9-3-2.7-6.7-4.3-9.8-1-1.9-3-3.1-3.7-5-1.1-2.9-1.4-5.8-1.2-7.7.4-3.5,1.1-5.2-.6-8.8s.5,0,.7.2c5.1,4.9-1,7.7,1.1,14,.8,2.8,3.3,4.4,4.5,7.1,2.5,5.5,4,13.1,10.6,14.8,2.3.2,4.3-1.1,6.6-1,2.9.2,6.7.7,8.8-1.8,1.1-1.5-1.6-3.8-2.2-5.4-.4-.8-.5-1.2-.3-1.2,1.1.4,2.8,2.5,4.1,2.9,4.4,2.1,8.5-2.5,8.9-6.7.6-2.6,2.6-4.8,4.2-6.9.8-1.4,3.6-4,1.1-4.9-5.9-1.1-11.9-4.3-17.9-4.8-3.6-.3-7.1.7-10.6-.5-2-.8-5.3-2-6.8-3.6,0-.2,1.7.5,3.2,1.4,4.3,2.8,9.4,1.9,14.2,1.9,7.4.3,14.5,5.5,22,3.7,2.5-.7,3.5-3.4,3.6-5.8,0-2,1.1-4,1-6-.2-1.6-1.6-3.2-1.9-4.8-.4-1.6.3-3.4-.2-4.9-2-4.1-9.3.5-12.5,1.3-3.4.9-7,1.7-10.6,1.4-2.7-.8,3.6-1.2,4.4-1.5,4.6-1.1,10.9-2.1,12.4-7.3.3-1.5,0-3.1.1-4.6,0-1.3.5-2.4.7-3.7.3-1.8-.5-3.3-1.8-4.5-1-1-2-2-3.1-2.3-2.1-.5-4.5,0-6.5.5-5.5,1.9-9.1,6.8-12.3,11.3-.5.9-1.5,2.9-1.7,2.6-.6-2.9,7.1-11.7,9.6-13.2,1.3-.9,2.7-1.8,4-2.7,1.1-.9,3.9-1.7,3.3-3.4-.9-1-2.5-.9-3.7-.8-6.3,1.3-10.4,7.3-13.8,12.4-2,3-2.5,6.5-2.8,10,0,1-.6,3.5-.9,1.1-.2-4.8,1.2-9.4,4.1-13.3,2.2-3.2,4.5-6.4,7.4-8.8,2.1-2,5.5-2.3,6.5-5.2.6-2.5-1.5-5.8-3.8-7-2.4-1.1-2.6,3.8-3.7,5.2-3,6.5-10.6,6.1-15.6,9.9-2,1.2-4,2.7-4.9,4.9-1.7,4-2.4,8.5-5,12.1-.9,1-.9-.4-.6-1.1,1.3-3.4,1.8-7.2,2.2-10.8.8-3.6-.3-7.4-2.2-10.5-2.2-3.1-3.9-6.8-5.1-10.3-.8-2-.9-4.3-1.8-6.3-1.4-2.7-4.1-.4-5.3,1.2-1.5,1.8-3.7,3.2-3.8,5.2.3,4.1,4.7,6.9,6.9,10,2.3,3.2,3.9,7.7,4.7,11.7.3,2.3,0,4.6-.3,6.8,0,.3-.3,2-.5,1.2,0-6.1-1-13.9-5.1-19-2-2.7-5.2-4.5-8.4-2.7-2.8,1.1-3.4,4.1-2.9,6.7.3,2.5-1.7,4.7-1.7,7.2,0,2.2.9,4.2.7,6.4-.1,2.4-1.4,4.4-1.6,6.8-.7,10.7,8.9,11.8,17.4,11.7,1,0,5.7-.4,3.6.4-.6.2-1.3.3-1.9.3-4.9,0-14.2.2-17.4-4-1.8-2.3-2.9-5.8-2.7-8.8.1-2.1,1.3-4,1.6-6.1.3-2.2-.9-4.4-.7-6.6.2-2.7,2.1-4.8,1.6-7.7-.4-2.4.3-4.9,2.4-6.3,1.6-1.2,4-1.3,4.5-2.6.2-.4.1-.9,0-1.5-1.9-4.2-1.1-5.5,2.1-8.5,1.9-2.2,5.2-6,7.6-2.5,1.3,2.2,2.3,6.5,4.6,7.7.9-.2.8-2.1.9-2.8.2-2.5,1.5-4.7,3.4-6.5h0ZM133.5,44.9c-3.2-1.1-6-.9-8.3,1.9-1,1.2-2.6,2.3-3,3.9-.2.8,0,1.6,0,2.4,0,1.6-1.1,3.6-.9,5.3.4,3.2,3,6,4.3,8.9,1,2,.8,4.9,3.4,3.8,2.3-1,4.7-2.3,7-3.4,4.2-2,8.7-3.8,10.2-8,1.6-4.1-.6-7.4-3.7-9.9-2.4-2.4-5.8-3.7-8.9-4.9h-.1Z"/>
    <path class="st1" d="M115.9,102.4c-.7-.7-1.2-.2-.8.7-.7-.1-1.5,0-2.3.7-1.4.2-2.3.6-2.6,1.4-1.3.3-2.5.5-3.8.9l-1,1.3c1.1-.2,2.9-.8,3.9-.2-1.8.7-4.4.7-6.1,1.4s-.6.5-.7.6c3.2-.6,7.5-.9,10.7-1.6,1.3-.3,2.6-.9,3.6-1.5,2,.4.3-3.4-.9-3.8Z"/>
  </g>
  <g>
    <path class="st0" d="M100.1,147.4c-2.8.2-5.4,1.5-7.3,3.5-.3.3-.6.7-.9,1.1-1.9,2.5-2.9,5.7-3.1,8.8,0,.6,0,1.3-.3,1.8-.3.9-1.2,1.7-1,2.7.2,1.1,1.4,1.6,2.5,1.8,1.6.2,3.2.3,4.7,0,.7,0,1.3-.2,2-.3.7,0,1.4.1,2.1.2,3.1.5,6.2.8,9.3.4,3.1-.4,5.2-5.1,7.7-7.1s3.5-2.1,5.1-4.5c.4-.6.9-1.2,1.4-1.7.9-.7,2.1-1,3.1-1.5s2.1-1.3,2.3-2.4c.3-1.3-.7-2.6-1.7-3.5-1.8-1.7-3.9-3-6.3-3.8-2.1-.7-4.2-1.1-6.4-1.5-1.5-.2-2.9-.5-4.4-.2-1.9.3-3.4,1.5-4.8,2.8-.8.8-.9,3.6-2.3,3.3"/>
    <path class="st2" d="M87.2,158.2c.5,0,0-.2,0,0h0Z"/>
    <path class="st2" d="M87.2,158.3h0c0-.1-.1-.2-.1-.1,0,0,0,.1,0,.1Z"/>
    <path d="M110.6,141.1s.5-.2.3-.2c-.2-.2-.2,0-.3.2h0Z"/>
    <path d="M110,141c.1,0,.5,0,.5-.2-.1-.3-.5,0-.5.2h0Z"/>
    <path d="M107.6,140.6s.2.1.3.2c.1,0,.3,0,.3-.1,0-.1-.2-.1-.4-.2-.2,0-.3,0-.3,0h0Z"/>
    <path d="M84.9,163.3c-.8-1,.2-2.7,1-3.5.8-.7,1.5-.6.9.5-.5.7-.8,3.2-1.9,3h0Z"/>
    <path d="M108.9,162.4c1.1-.4,3.7-2.2,4.4-2,.1,0,0,.3-.2.6-.6.8-1.5,1.5-2.3,2-2.3,1.5-5,2.2-7.9,2.7-2.2.3-4.7.5-7,0-.6-.1-1.1-.3-.7-.7.8-.5,3.4-.4,4.7-.6,3.1-.2,6.1-.8,8.9-2.1h0Z"/>
    <path d="M120.5,144.7c0,0-.2-.1-.3-.2-.8-.5-1.6-.8-2.4-1.2s-1.3-.6-2-.8-2.4-.8-2.8-.5c-.1,0,.4.1.9.4,1.9.8,4.5,1.7,6.1,2.9.4.3.9.7,1.3,1.1.7.7.6,1.6.9,2.4.2.6.6,0,.7-.4.6-1.6-1.1-2.9-2.4-3.7Z"/>
    <path d="M111.5,151.5c-1.5-.9-3.1-1.6-4.8-2.1,0,0-.1,0-.2,0,0,0-1.1-.6-1.2-.6-.6-.3-1.6-1-2-1.2-.4-.2-1-1-1.4-.7-.7.5,3.9,2.6,4.1,2.8.1,0,.2.2.3.3,1.2,1.4,3,2.1,4.7,2.4.9.2,1.5-.2.4-.8Z"/>
    <path d="M97.6,146.6c-1.7,3-2.9,6.4-3.4,9.8,0,.6-.2,1.4-.4,1.9,0,.1-.2.4-.3.2-.6-3.2,1.4-10.5,4.1-12.5.2,0,.1.2,0,.6h0Z"/>
    <path d="M96.9,146.5c.1.1.2-.1.2-.2,0-.2-.2,0-.2.2h0Z"/>
    <path d="M118,153s0,0,0,0c0-.1.3-.3.2-.5s-.4,0-.6.2c-.6.6-1.1,1.4-1.7,2.1-.3.3-.5.7-.8,1-.6.6-1.3,1.2-1.6,2,0,.1-.1.3-.3.3.2.1.4,0,.6,0s.3-.3.4-.4c.9-1.2,1.9-2.4,3-3.5.2-.2.4-.4.5-.6,0-.2.2-.4.2-.5Z"/>
    <path d="M100.5,162.8c-4,1-8.3,2.2-12.4,2.6-1.3.2-6.2-.2-2-.9,9.4-1.5,20.6-2.8,27.2-10.1,1.5-1.6,3.1-3.1,5.1-4,1.3-.6,2.8-1,3.1-.9,0,0,0,0,0,0-1.3.8-3.2,1.1-4.5,2-2,1.2-3,3.5-4.8,5.2-3.2,3.1-7.6,4.7-11.7,5.9h-.1Z"/>
  </g>
  <path class="st1" d="M114.4,143.2c-.6-1.3-.5-2.3-1.5-2.8-2.6-1-5.8-.8-8.4-.5-2.6.4-5.1.3-7.5-1-1.4-.8-2.6-1.3-3.8-1.6-2.4-.9-5.1-.9-7.5-.6-10.1,1.4-19.3,5.9-29.4,7.5-2.4.4-4.3,0-6.5-.2-2,.4-1.4,3.4.6,3.1,3.6-.7,8.7-1.5,12.2-2.4,7.1-1.3,28.8-10.8,32.3-2,.3.7,1.1,1.1,1.8.9.6,1.6-1.7,2.4-3.1,3.4-3.2,1.9-5.4,4.8-6.6,8.3-.3.9-.6,1.9-.7,2.7,0,.2,0,.5.1.6h0c1-.9,1.4-2.8,2.1-4,1.8-3.8,4.8-6.8,8.7-8,2.1-.6,4.4-.7,5.5-2.6.6-.9,1.1-2,2.1-2.6,3.2-1.7,6.8,1.1,9.3,2.9.5.3,1,.9,1.5,1-.2-.6-1-1.5-1.2-2.2Z"/>
  <path d="M128.4,110.2c.7-1.3,0-2-1.7-2.2l.2-.8c.5,0,.7-.2.6-.4l.9-1.4c-1.8-.5-1.1-.4-1.5-1.3-.2-.5-1.2,0,.2-1.1l-2.1-.5c.7-2,2.5-1.5,3.9-2.4h-1.5c0-.1.4-1.1.4-1.1-2.1.8-2.4-.5-3.5-1.8,1-1.3,3.3-2.6.4-2.6l1.2-1.3-2.2.6c.6-1.9-2.1,1-1.4-.9h-1.1c0,.1,1.7-2,1.7-2-.3-.4-1.1,1-1.2,0,0-.4,1.6-1.4.3-1.8l-.8,1.3c-.4.5-1.4-1.6-1.4-1.9,0-.6.7-1.5.2-1.9-.4.6-.4,1.5-.9,2.1-.3.5-.8,0-1,.2-.5.5-1.5,2.3-1.9,3,0,.1.1.8,0,1.1-.4.8-1.1,1.4-1.3,2.4-1.3,0-1.8-.9-2.6-1.5-.3-.2-.8-1-1-.4.9,1.1,2.6,2.1,3.1,3.4.5,1.1,0,3.9.3,5.2,0,.2.2.4.4.6-3.1.6-6.1,1.7-8.9,3.2-3.9,2-7.4,4.5-10.8,7.2-6.6,5.4-12.4,11.6-17.9,17.9-3.5,3.8-7.5,7.3-11.6,10.5,0-.1.2-.3.2-.4,1-1.7,2.1-3.4,3-5.1,1.9-3.8,3.3-7.7,5.2-11.5,1.6-2.6,4.6-3.2,6.3-5.7,3-5.9,3.2-11.5-5-11.5-3.3.6-6.1,4.7-5.4,8.2.5,3,2.6,4.7,2.8,6.8,0,3.4-2.2,6.6-3.6,9.6-2.5,4.3-5.1,8.7-8.1,12.7,0,0-.2.1-.2.2-4.4,3-8.9,5.6-13.6,8-3.3,1.8-6.5,2.6-10.1,3.4-.5,0-1,.3-1.4,1-.3.6-.2,1.4.4,1.8.6.4,1.2.4,1.7.2,1.6-.4,3.1-1.1,4.5-1.8,5.8-2.6,11.4-5.5,16.7-9.1,7-4.7,13.9-9.6,19.8-15.8,5.6-6.1,11.8-11.8,18.4-16.5,5.7-4,11.8-7.6,18.7-8.8.4,0,.8,0,1.2-.1.4,1.3,0,2.9.9,4.2.2,0,.4.4.7.7-1.1.9.9,2,1.9,2.4,1.3.6,2.4.3,3.3-.8,0,.2.7.6.9.6.4-.2.1-.7.2-1.5,4.1.2,5.1-.7,2.9-2.8ZM74.3,108.7c.4-.3.6-.4,1.2-.4.3,0,.6,0,.8,0,.6.4,1,.6,1.8.7.6.1,2,.1,2.4.6,0,.2-.1.5-.3.8-.4.7-2.1,1.4-2.8,1.4-1-.1-2.6-.5-3.4-1.1-.2-.3.5-.6.3-.8,0-.2-.4-.4-.5-.6-.1-.3.5-.4.6-.6ZM71.3,117.9c-.9-1.5-.8-3.4-.2-5.2.4-1.2,1-1.8,2-1.2.5.2,0,1.1.6.9,1.3-.4,3.1,0,4.4.2.5,0,1-.2,1.4-.5.3-.2,1-.7.6,0-1,1.7-1.8,3.4-2.3,5.4-.6,2-1.4,3.2-3,4.2-.4.2-.8.5-1.1.3h0c-.6-1.5-1.2-2.9-2.2-4.2ZM115.6,102.9c-.1,0-.3,0-.4,0,.2-.2.4-.4.7-.6,0,.1,0,.3,0,.4-.1,0-.2,0-.4,0Z"/>
</svg>