<?xml version="1.0" encoding="UTF-8"?>
<svg id="Layer_1" data-name="Layer 1" xmlns="http://www.w3.org/2000/svg" viewBox="0 0 342.97 95.24">
  <defs>
    <style>
      .cls-1 {
        fill: #dd2530;
      }

      .cls-2 {
        fill: #cecfcf;
      }

      .cls-3 {
        fill: #231f20;
      }
    </style>
  </defs>
  <path class="cls-1" d="M281.72,40.16c.08-.27.05-.14.32-.29.59-.34,2.04-.72,2.65-.5.55.2,1.21-.02,1.78-.09,1.43-.17,1.27,1.52,1.22,2.47-.08,1.26.58,2.62-1.5,3.7-1.57.82-2.29,1.96-3.02.79s-1.39-1.93-1.67-3.21c-.21-.97.07-1.36.3-1.99.09-.24-.16-.63-.09-.88Z"/>
  <g>
    <path class="cls-3" d="M136.4,91.01c0,.52-.08,1.02-.24,1.51-.16.49-.47.92-.93,1.3-.46.38-1.11.69-1.94.92-.83.23-1.92.35-3.26.35-.65,0-1.26,0-1.82-.03s-1.06-.04-1.5-.06-.81-.04-1.1-.06c-.29-.02-.49-.04-.6-.05v-13.13c0-.24.06-.43.19-.56.13-.13.3-.21.52-.25.29-.05.77-.1,1.46-.14.69-.04,1.62-.06,2.79-.06s2.21.11,2.98.34c.77.22,1.36.52,1.79.88.43.37.72.77.87,1.22.16.45.23.89.23,1.34s-.06.82-.19,1.16c-.13.34-.29.63-.49.88-.2.25-.41.46-.65.62-.24.16-.46.28-.68.37.46.15.85.34,1.18.58.33.24.59.51.8.81.21.31.36.63.46.99.09.35.14.72.14,1.1ZM134.39,84.49c0-.8-.35-1.43-1.06-1.88-.71-.45-1.84-.68-3.42-.68-1.02,0-1.83.03-2.45.08-.62.05-.98.1-1.09.12v4.94h4.62c1.22,0,2.09-.24,2.61-.71.52-.47.78-1.1.78-1.87ZM134.94,90.99c0-.39-.06-.76-.19-1.09s-.33-.62-.61-.86c-.28-.24-.64-.43-1.1-.57-.45-.14-1.01-.2-1.66-.2h-5v5.41c.18.03.55.07,1.13.12.58.05,1.37.08,2.39.08.91,0,1.68-.06,2.33-.17.64-.11,1.17-.29,1.57-.53.4-.24.69-.54.87-.9s.27-.79.27-1.28Z"/>
    <path class="cls-3" d="M145.22,94.87v-13.21c0-.22.06-.39.17-.53.12-.14.31-.2.58-.2.14,0,.26.02.38.05s.21.07.27.11v12.54h7.91v1.24h-9.31Z"/>
    <path class="cls-3" d="M175.64,87.88c0,1.06-.19,2.04-.56,2.94-.37.9-.89,1.68-1.54,2.34-.66.66-1.43,1.17-2.33,1.53-.89.37-1.86.55-2.91.55s-2.01-.18-2.91-.55c-.89-.37-1.67-.88-2.32-1.53-.65-.66-1.16-1.44-1.53-2.34-.37-.9-.56-1.88-.56-2.94s.19-2.03.56-2.93c.37-.89.88-1.67,1.53-2.32.65-.65,1.42-1.16,2.32-1.52.89-.37,1.86-.55,2.91-.55s2.01.18,2.91.55c.89.37,1.67.87,2.33,1.52.66.65,1.17,1.42,1.54,2.32.37.89.56,1.87.56,2.93ZM174.13,87.88c0-.89-.15-1.71-.45-2.46-.3-.75-.71-1.39-1.23-1.92-.52-.54-1.14-.95-1.85-1.25-.71-.3-1.48-.45-2.31-.45s-1.59.15-2.3.45c-.71.3-1.32.71-1.84,1.25-.52.54-.93,1.18-1.23,1.92-.3.75-.45,1.56-.45,2.46s.15,1.72.45,2.47c.3.75.71,1.4,1.23,1.94s1.13.96,1.84,1.26c.7.3,1.47.45,2.3.45s1.6-.15,2.31-.45c.71-.3,1.33-.72,1.85-1.26s.93-1.19,1.23-1.94c.3-.75.45-1.58.45-2.47Z"/>
    <path class="cls-3" d="M198.3,87.88c0,1.06-.19,2.04-.56,2.94-.37.9-.89,1.68-1.54,2.34-.66.66-1.43,1.17-2.33,1.53-.89.37-1.86.55-2.91.55s-2.01-.18-2.91-.55c-.89-.37-1.67-.88-2.32-1.53-.65-.66-1.16-1.44-1.53-2.34-.37-.9-.56-1.88-.56-2.94s.19-2.03.56-2.93c.37-.89.88-1.67,1.53-2.32.65-.65,1.42-1.16,2.32-1.52.89-.37,1.86-.55,2.91-.55s2.01.18,2.91.55c.89.37,1.67.87,2.33,1.52.66.65,1.17,1.42,1.54,2.32.37.89.56,1.87.56,2.93ZM196.8,87.88c0-.89-.15-1.71-.45-2.46-.3-.75-.71-1.39-1.23-1.92-.52-.54-1.14-.95-1.85-1.25-.71-.3-1.48-.45-2.31-.45s-1.59.15-2.3.45c-.71.3-1.32.71-1.84,1.25-.52.54-.93,1.18-1.23,1.92-.3.75-.45,1.56-.45,2.46s.15,1.72.45,2.47c.3.75.71,1.4,1.23,1.94s1.13.96,1.84,1.26c.7.3,1.47.45,2.3.45s1.6-.15,2.31-.45c.71-.3,1.33-.72,1.85-1.26s.93-1.19,1.23-1.94c.3-.75.45-1.58.45-2.47Z"/>
    <path class="cls-3" d="M214.38,90.65c.15-.3.35-.7.61-1.21.26-.51.54-1.06.83-1.66.3-.6.6-1.21.92-1.84.31-.63.61-1.22.88-1.78.28-.56.52-1.04.74-1.45.22-.41.37-.71.47-.88.12-.22.28-.42.48-.61.2-.19.5-.28.92-.28.27,0,.48.03.62.1.14.07.24.12.29.16.14,2.33.27,4.61.4,6.85.13,2.24.25,4.51.38,6.83h-1.34c-.03-.43-.06-.98-.09-1.65-.03-.66-.07-1.39-.11-2.19-.04-.79-.08-1.61-.13-2.45-.05-.84-.09-1.65-.14-2.43-.05-.78-.09-1.5-.12-2.15-.03-.66-.06-1.19-.09-1.6-.08.16-.24.47-.47.94-.23.46-.5,1-.81,1.62s-.65,1.28-1.01,1.98c-.36.71-.71,1.38-1.04,2.03-.33.65-.63,1.24-.9,1.76-.27.52-.47.91-.59,1.17h-1.44c-.12-.24-.29-.59-.52-1.03-.22-.44-.48-.94-.76-1.5-.29-.56-.59-1.16-.9-1.8-.32-.64-.64-1.26-.96-1.88s-.62-1.2-.92-1.76c-.29-.56-.54-1.04-.76-1.44-.05.96-.11,1.97-.16,3.02-.05,1.05-.11,2.11-.17,3.17-.06,1.06-.12,2.12-.17,3.17-.05,1.05-.1,2.06-.14,3.02h-1.34c.11-2.14.22-4.31.35-6.52s.24-4.37.37-6.52c.03-.28.14-.51.34-.67s.42-.24.66-.24c.31,0,.56.05.73.14.18.1.31.2.41.31.05.09.19.35.4.75s.46.9.76,1.48c.3.58.62,1.22.96,1.91.35.69.68,1.36,1.02,2.01.33.65.64,1.25.92,1.81.28.56.5.99.66,1.3Z"/>
    <path class="cls-3" d="M241.19,82.49c0,.16-.05.33-.16.49s-.22.28-.33.35c-.12-.12-.31-.27-.57-.45-.26-.18-.58-.35-.98-.51-.39-.16-.86-.31-1.39-.43-.54-.12-1.14-.18-1.82-.18-2.71,0-4.07.87-4.07,2.6,0,.41.08.75.23,1.04.16.28.38.53.67.72.29.2.65.36,1.07.5.42.14.89.25,1.4.35l2.42.45c1.44.27,2.5.7,3.2,1.3.7.6,1.05,1.42,1.05,2.48,0,.58-.12,1.12-.35,1.62-.23.5-.58.92-1.06,1.27-.47.35-1.07.63-1.79.83-.72.2-1.56.31-2.52.31-.75,0-1.43-.05-2.04-.16-.62-.11-1.17-.25-1.67-.42-.5-.17-.92-.35-1.29-.54-.37-.19-.67-.37-.91-.53l.69-1.1c.2.14.46.29.78.47s.7.35,1.14.51c.44.16.93.3,1.48.41.55.11,1.16.16,1.84.16,1.3,0,2.32-.22,3.06-.66.74-.44,1.11-1.13,1.11-2.06,0-.47-.09-.87-.26-1.18-.18-.31-.42-.56-.72-.75-.3-.19-.66-.34-1.07-.45s-.83-.2-1.28-.28l-2.4-.41c-.6-.09-1.15-.24-1.67-.44-.51-.2-.96-.45-1.34-.75-.38-.3-.68-.67-.9-1.1-.22-.43-.33-.92-.33-1.47s.09-1.03.28-1.49c.19-.47.5-.88.95-1.24.44-.36,1.01-.64,1.71-.85.7-.21,1.55-.32,2.57-.32.75,0,1.4.04,1.95.13.56.09,1.02.19,1.4.31.38.12.68.25.91.38s.4.23.51.31c.2.16.33.3.4.41.06.11.09.24.09.39Z"/>
  </g>
  <path class="cls-2" d="M151.22,36.25c-.22.2-.51.41-.79.65l.79-.65Z"/>
  <path class="cls-1" d="M342.2,39.51c-.04-.37-.26-.75-.17-1.07.24-.72,1.06-1.45.92-2.3l-.02-.15c-.29-1.15-1.43-1.96-1.56-3.18-.61-2.24.28-4.03-2.74-4.48-.71-.18-1.06-1.05-.93-1.73.31-.93-.21-1.79-.69-2.55-.14-.23-.15-.39-.02-.62.49-.64.45-1.7.14-2.47-1.09-1.79-1.69-3.34-3.39-4.49-.56-.35-.76-1.05-1.15-1.47-.27-.27-.51-.49-.86-.81-.85-.69-1.96-.87-2.51-1.76-.02-.43-.03-1.18-.35-1.66-.38-1.48-2.15-1.5-3.26-2.2-.56-.39-.75-1.2-1.47-1.59-1.36-.67-2.05-1.52-3.14-2.29-1.93-.51-3.82-1.43-5.81-1.77-.58-.04-.81.39-1.25.6-.93.31-1.42.85-2.29,1.53-.35.16-1.17.51-1.51.67-.67.5-.86.52-1.08,1.46,0,1-.16,1.64-.24,2.69,0,.44.1,1.14.11,1.65.18,2.09-.96.81-1.36-.12-.17-.45-.38-1.19-.85-1.64-.49-.6-1.28-1.09-1.71-1.67-.33-.62-.75-1.52-1.59-1.4-1.06.62-.96,3.07-2.22,3.24-1.58.15-1.67,2.41-1.07,3.53.3.55,1.27.75.95,1.51-.38.79-.93.48-1.69,1.02-1.48.92-2.24,2.92-1.6,4.61.42,1.53-1.06,3.19-.72,4.6.24.78-.19,1.5-.34,2.24-.06.75.42,1.04.49,1.9.15,1.01-.42,2.23.04,3.17.05.17.11.37.15.55.19.8.38,1.65.35,2.51.16.49.19.77.29,1.23.22.48.8.97,1.23,1.27,1.44,1.36,3.55,1.06,5.39.95,1.11.1,2.81.41,3.77.85.35.16-.23.74.23.78.52.06.79.57.97.95.11.46.86.65.95,1.08-.31,1.25-.55,2.83-.25,4.1.08,1.1-.23,2.34.49,3.29.33.35.69.6,1.02.94.71.56.96,1.38,1.39,2.14.78.88,1.62,1.39,2.77,1.66.43.09.66-.34.82-.3.28.22.22.73.48,1.1.28.5.8.75,1.34.68.35-.09.63-.19.93.03.32.27.52.56.95.25,1.3-.87,3.32.36,4.7.4.53.13.53,1.02,1.12,1.11.92-.1,1.77-.37,2.72.14,1.03.71,1.38-.19,1.97-.92.71-.92,1.7-.17,2.69-.37.52-.13.91-.39,1.23-.87.29-1.89,1.15-3.79,1.52-5.62.27-.74,1.24-1.46,1.45-2.16.38-.96.04-1.32.69-1.85.2-.24.19-.66.27-.98.37-.84,1.31-1.15,2.1-1.54.72-.47,1.42-1.2,1.53-2.09.19-.87-.35-1.58-.33-2.33ZM297.93,22.5v-.02s.01.02.01.03c0,0,0,0-.01,0ZM301.99,38.85s-.01-.01-.02-.02c0,0,.02,0,.03,0,0,0,0,0,0,.01ZM304.2,38.64h0s0,0,0,0c0,0,0,0,0,0ZM301.67,15.32s0-.01,0-.02l-.02-.02s0-.02.01-.02c.01.02.02.05.04.07-.01,0-.03,0-.04,0ZM323.04,17.67h0s0,0,0,0c0,0,0,0,0,0Z"/>
  <path class="cls-1" d="M280.51,70.83c-1.6.09-3.08.86-4.17,2.01-.18.19-.36.4-.52.61-1.08,1.44-1.63,3.23-1.77,5.02-.03.36-.04.72-.17,1.05-.2.52-.67.99-.59,1.54.09.63.82.91,1.45,1.01.89.14,1.81.14,2.7.01.38-.06.75-.14,1.13-.15.4-.01.79.06,1.19.12,1.76.28,3.56.48,5.33.24,1.77-.24,2.99-2.91,4.39-4.03,1.12-.89,1.98-1.18,2.88-2.59.23-.36.48-.7.82-.97.52-.41,1.17-.6,1.77-.88s1.19-.74,1.31-1.39c.14-.76-.4-1.48-.97-2.01-1.03-.96-2.25-1.7-3.57-2.18-1.17-.42-2.4-.63-3.63-.84-.83-.14-1.68-.28-2.5-.13-1.07.2-1.96.86-2.71,1.62-.46.47-.54,2.03-1.33,1.91"/>
  <g>
    <path class="cls-3" d="M273.11,77s.05.06.05.07l.03-.07h0c.28.03.04-.12-.01-.01h0s-.06-.03-.08.01Z"/>
    <path class="cls-3" d="M272.47,77.91c-.47.46-1.06,1.45-.59,2.02l.03.02c.65.08.78-1.35,1.08-1.74.36-.65-.08-.72-.52-.3Z"/>
    <path class="cls-3" d="M285.54,79.37l-.06.03c-1.58.75-3.31,1.07-5.06,1.19-.74.07-2.21.03-2.67.33-.22.19.07.3.41.39,1.28.24,2.69.15,3.97-.04,1.61-.26,3.17-.7,4.48-1.54.47-.3,1-.72,1.33-1.16.13-.17.17-.29.11-.33-.37-.11-1.87.9-2.5,1.14Z"/>
    <path class="cls-3" d="M284.11,72.28c.67.79,1.7,1.19,2.69,1.39.49.1.84-.11.25-.47-.85-.51-1.76-.9-2.71-1.18-.04-.01-.07-.02-.1-.05-.03-.03-.64-.35-.68-.37-.35-.19-.89-.56-1.17-.7-.21-.11-.57-.57-.8-.39-.37.29,2.24,1.51,2.36,1.6.06.05.11.11.16.17Z"/>
    <path class="cls-3" d="M290.52,73.81c-.36.34-.64.81-.95,1.21-.16.2-.31.4-.48.58-.34.36-.75.68-.92,1.14-.03.08-.06.17-.14.19.1.06.24.04.34-.02s.17-.16.25-.25c.53-.7,1.11-1.36,1.72-1.99.1-.1.21-.21.28-.34.06-.1.09-.2.14-.3,0,0,0-.02.01-.02.05-.08.15-.19.09-.29-.08-.14-.24.02-.32.09Z"/>
    <path class="cls-3" d="M290.97,72.58c-1.16.5-2.1,1.37-2.93,2.29-3.77,4.18-10.13,4.93-15.5,5.76-2.37.4.44.63,1.15.49,2.35-.22,4.75-.88,7.05-1.48l.06-.02c2.34-.71,4.87-1.62,6.67-3.39,1-.98,1.56-2.31,2.72-2.98.76-.5,1.83-.67,2.56-1.14.02-.03,0-.04-.03-.05-.17-.04-1.04.17-1.77.51Z"/>
    <path class="cls-3" d="M95.52,81.49c-.46.04-.52,1.75-.59,2.1-.66,3.34-3.84,5.09-6.76,6.26-2.5,1-5.2,1.31-7.88,1.47-3.55.21-7.14.05-10.71-.85-3.71-.94-7.49-2.65-10.9-5.62-.65-.57-1.37-1.17-2.03-1.86-4.35-4.97-3.86-11.14-2.64-17.57,1.49-7.87,4.28-15.63,7.26-23.04,5.62-14.16,12.61-27.64,20.52-40.66.75-1.19.46-1.66-.91-1.71-.69-.06-1.1.23-1.48.77-.94,1.15-1.89,2.3-2.7,3.5-7.95,11.28-14.14,23.51-19.73,36.05-1.07,2.4-1.8,5.02-3.06,7.32-4.49,8.02-9.49,15.84-15.04,23.22-3.23,4.36-6.68,8.48-11.01,11.77-1.5,1.14-3.08,2.11-4.83,2.65-13.48,4.54-5.08-32.32-3.41-37.86,1.8-5.98,3.3-12.06,5.7-17.84,1.46-3.5,4.14-8.58,1.2-12.02-2.49-2.92-8.47-3.02-11.96-2.86-3.08.14-6.19.54-9.25.79-1.62.2-3.2.44-4.8.56-.31.07-.56.18-.51.81.03.32.22.56.5.56.14,0,.28,0,.45-.07,1.68-.16,3.37-.32,5.05-.48,3.58-.36,7.14-.84,10.76-.49,1.85.17,3.95.63,5.49,1.72,2.22,1.55,1.15,3.79.24,5.93-3.27,7.72-5.36,15.86-7.6,23.92-2.26,8.14-4,16.62-3.32,25.11.26,3.27.83,6.5,2.49,9.44,1.95,3.41,5.22,5.01,9.07,4.45,2.08-.27,3.93-1.13,5.67-2.3,2.33-1.6,4.31-3.53,6.15-5.64,4.41-5.03,8.02-10.61,11.57-16.17,1.66-2.65,3.27-5.29,4.93-8,.07.06.13.11.2.17-.09.38-.17.76-.32,1.14-3.38,8.81-3.88,20.48,2.42,28.32,1.38,1.72,3.18,3.13,4.89,4.5,5.65,4.53,13.39,5.15,20.35,4.63,6.31-.47,14.62-2.09,17.26-8.76.07-.18.14-.37.2-.55.22-.67.25-2.9-.93-2.81Z"/>
    <path class="cls-3" d="M338.64,33.4c-.12-1.41.55-3.43-1.13-4.17-.7-.38-1.72-.27-1.99-.55-.32-.45-.04-1.07-.08-1.6.04-.7-.33-1.41-.31-2.18,0-.93.46-1.76.63-2.65.24-1.09-.36-2.15-1.02-2.98-1.01-1.23-1.49-2.51-2.22-3.85-.51-.91-.39-1.7-1.08-2.25-2.28-.93-1.93-3.09-3.65-4.46-1.47-1.23-3.35-1.57-4.74-2.81-.86-.79-1.8-1.67-2.91-2.16-3.2-1.67-6.8-2.96-9.56,0l-.05.05c-1.06,1.03-1.83,2.29-1.94,3.72-.09.42-.02,1.5-.54,1.59-1.34-.66-1.86-3.11-2.62-4.37-1.35-1.99-3.24.17-4.32,1.44-1.86,1.71-2.27,2.45-1.21,4.85.1.33.13.61.03.84-.28.69-1.65.77-2.57,1.46-1.2.78-1.55,2.23-1.35,3.58.29,1.67-.77,2.83-.91,4.39-.09,1.28.58,2.52.42,3.79-.16,1.18-.84,2.28-.92,3.49-.15,1.71.47,3.68,1.52,5,1.73,2.26,6.6,2.28,9.49,2.27.04.06.08.12.11.18-.04,0-.09.02-.13.03-.24-.02-.49.04-.75.17-.23.06-.45.11-.68.18-5.96,1.86-10.69,6.15-15,10.45-3.39,3.37-6.18,7.19-10.02,10.11-.48.38-.97.75-1.46,1.13.03-.06.07-.12.1-.18.56-.98,1.2-1.91,1.72-2.92,1.09-2.14,1.9-4.42,2.98-6.57.92-1.46,2.6-1.83,3.59-3.23,1.72-3.39,1.84-6.58-2.83-6.54-1.88.37-3.47,2.67-3.07,4.68.3,1.71,1.46,2.66,1.58,3.88.01,1.96-1.27,3.75-2.05,5.5-1.41,2.48-2.91,4.94-4.6,7.23-.05.06-.12.11-.17.16-4.24,2.98-8.85,5.59-13.78,6.85-.03,0-.05.01-.08.02-3.25.62-6.52,1.14-9.78,1.31-1.39.09-2.77.08-4.12-.02-.12-.04-.25-.06-.37-.1-.13-.01-.26,0-.37.05-.68-.07-1.36-.15-2.02-.27-2.15-.44-4.2-1.32-5.37-2.88-.58-.78-.98-1.71-1.17-2.68-.2-1.02-.24-2.1-.2-3.17s.24-2.1.39-3.17c.2-.2.44-.24.78-.2,2.2.24,4.25-.24,6.25-.88,3.27-1.07,6.29-2.64,9.22-4.44,3.51-2.24,6.73-4.83,9.81-7.76,3.37-3.27,6.54-6.68,9.08-10.59,1.32-2,2.44-4.1,2.98-6.44.44-1.71.54-3.46.15-5.22-.24-1.42-1.02-2.54-2.34-3.27-2.49-1.32-5.03-1.27-7.61-.34-2.49.88-4.78,2.2-6.93,3.71-3.46,2.44-6.44,5.42-9.37,8.44-5.17,5.42-8.98,11.61-11.91,18.44-.68,1.56-1.32,3.17-1.9,4.78-.24.63-.29.63-.93.29-.59-.39-1.22-.59-1.9-.68-2.2-.34-3.95.49-5.47,1.9-.45.44-.86.9-1.25,1.37-.07,0-.15,0-.22,0-7.95.88-18.4,7.76-21.47,9.22-1.37.63-2.78,1.07-4.34,1.22-1.12.1-2.15-.15-2.93-1.07-1.85-2.39-2-4.88-.78-7.56.24-.54.54-.83,1.22-.63.93.24,1.85.2,2.78-.1,1.9-.63,3.46-1.81,4.88-3.17.24-.24.39-.49.54-.78.39-.78.24-1.56-.49-2.1-1.17-.83-2.44-1.32-3.85-.88-3.64,1.07-6.41,3.2-7.78,6.82-2.99,2.89-8.08,8.11-11.55,5.45-2.63-1.34-1.22-6.33-3.99-7.63-2.14-1.13-5.55,3.55-6.83,3.42-.26-.34.41-2.13.89-4.04,2.65-9.07-5.14-13.03-11.65-5.99-2.53,2.34-4.51,6.1-5.85,7.93-.13.11-.24.22-.34.31-.18.07-.36.14-.55.22-.14-.02-.29-.09-.48-.25-1.1-1.45-2.04-.67-2.17,1.52-5.27,2.74-12.57,7.53-15.73,9.07-1.27.63-2.54,1.17-4,1.17-.73-.05-1.22-.34-1.51-1.02-.29-.68-.44-1.41-.44-2.2-.05-1.76.29-3.42.98-5.07.54-1.37,1.37-2.59,2.1-3.85.54-1.02.44-1.37-.59-1.85-.29-.15-.59-.34-.88-.24-.54.2-.83-.1-1.22-.34-1.46-.83-2.93-1.02-4.39-.1-1.76,1.1-3.04,2.48-3.87,4.1-.14.08-.29.15-.43.25-3.76,2.44-7.47,4.93-11.08,7.66-2.54,1.95-5.03,4.05-8,5.42-2.1.93-3.66,0-3.9-2.29-.05-.49-.05-.98,0-1.46.39-3.51,1.12-6.98,2.44-10.2,5.27-12.78,11.91-24.74,19.57-36.21.39-.54.78-.59,1.32-.49,2.68.54,5.32,1.07,7.95,1.56,4.42.82,8.9,1.49,13.4,1.74,2.69.15,5.39.13,8.07-.12,2.37-.22,5.08-.37,7.23-1.49.41-.21,3.02-2.04,2.36-2.61-.16-.14-.57-.14-.75-.07-.8.27-1.15,1.1-1.89,1.48-2.23,1.11-4.93,1.33-7.37,1.55-2.66.24-5.34.29-8.01.2-6.98-.24-13.71-1.71-20.49-3.03-.73-.2-.63-.44-.29-.93,1.02-1.46,2.1-2.98,3.12-4.49.24-.39.68-.83.29-1.32-.34-.44-.93-.59-1.51-.54-.59.1-.93.49-1.27.88-1.27,1.56-2.44,3.22-3.51,4.88-.34.54-.68.63-1.27.54-2.34-.49-4.64-.93-6.93-1.32-6.69-1.12-13.37-1.51-20.1-.63-3.07.39-6.1,1.07-8.88,2.49-.98.54-1.9,1.07-2.39,2.15-.39.68-.05,1.27.83,1.56.49.15,1.17.49.98-.63-.05-.15.24-.34.44-.54.93-.88,2.05-1.46,3.27-1.85,1.66-.59,3.42-1.07,5.17-1.37,9.08-1.42,18.1-.63,27.08,1.07.93.15.44.54.24.93-1.46,2.24-2.88,4.49-4.29,6.73-4.93,7.81-9.81,15.71-13.32,24.3-.67,1.61-1.25,3.26-1.74,4.92-1.52.76-3.02,1.54-4.46,2.4-2.54,1.56-5.07,3.12-7.81,4.44-1.37.63-2.78,1.37-4.29,1.61-1.61.24-1.95-.1-1.81-1.66v-.34c.2-1.22.59-2.34,1.12-3.42.73-1.56,1.51-3.07,2.29-4.59.39-.78.68-1.56.93-2.39.29-1.12-.15-2-.98-2.73-.83-.68-1.61-.39-2.39.05-.88.49-1.61,1.12-2.34,1.81-2.63,2.34-5.12,4.83-7.56,7.32-.44.49-.88.93-1.66,1.12.05-.68.29-1.22.54-1.76.63-1.41,1.46-2.73,2.34-4,.83-1.07.59-2.05-.49-2.73-.49-.29-.88-.29-1.27.1-2.05,2-3.32,4.34-3.22,7.32.05.93.39,1.71.98,2.39.68.78,1.32.88,2.15.24.34-.24.68-.49.98-.78,2.39-2.39,4.64-4.98,7.22-7.17,1.07-.93,2.1-1.8,3.71-2.34-.63,1.56-1.46,2.78-2.2,4-1.37,2.34-1.95,4.83-1.71,7.47.2,2.24,1.9,4.24,4.78,3.22,1.61-.59,3.17-1.27,4.64-2.1,2.83-1.51,5.46-3.22,8.2-4.83.64-.35,1.26-.7,1.88-1.05-.72,2.82-1.18,5.71-1.29,8.66-.15,4.34,3.27,6.59,7.22,4.68,1.37-.68,2.68-1.51,3.95-2.39,4.57-3.18,8.95-6.7,13.63-9.78-.4,1.22-.58,2.55-.55,3.97,0,1.37,1.56,2.15,2.83,1.56.49-.24.93-.59,1.27-.98.54-.49,1.07-1.02,1.66-1.61.2.49.15.88.2,1.22.1,1.02.24,2.05.73,2.98,1.66,3.12,4.98,3.81,7.76,2.64,4.04-1.72,10.63-6.97,16.26-10.06,0,.09,0,.18,0,.27.23,1.16.44,2.83,1.27,3.76,1.36,1.52,2.87-2.06,3.29-2.92,1.5-3.04,2.68-6.02,5.04-8.53,1.47-1.56,3-3.02,4.92-4.02,1.81-.94,4.44-1.07,5.55,1.16.29.58.35,1.27.27,1.93-.39,3.43-2.72,6.32-2.77,9.86-.02,1.49,1.29,2.87,3.01,1.04,1.07-1.14,4.4-5.9,6.01-3.29.78,1.27.8,2.84,1.67,4.14.82,1.21,2.03,2.23,3.56,2.44,2.83.39,5.6-1.61,7.58-3.31.96-.82,1.84-1.72,2.68-2.65-.24,1.66.11,3.24,1,4.72,2.39,3.9,5.22,5.07,9.61,3.42,4.32-1.61,12.97-8.11,21.59-9.87-.65.92-1.21,1.88-1.67,2.9-.68,1.42-1.17,2.93-1.07,4.54.05,1.22.54,1.8,1.81,1.95.83.15,1.61,0,2.29-.54.34-.29.73-.54,1.07-.88,6.1-5.51,4.98-4.1,6.59-5.56,0,.2,0,.39-.05.59-.05,1.27,0,2.59.29,3.9.34,1.27.93,2.59,1.8,3.66.93,1.07,2.1,1.85,3.32,2.34,1.22.54,2.49.78,3.71.93,2.49.29,4.93.15,7.27-.1,3.21-.4,6.38-.97,9.52-1.64v.02c.12-.02.23-.06.34-.09.05-.01.1-.02.16-.03h0c.66-.17,1.3-.36,1.93-.57,1.33-.32,2.65-.63,3.92-.95,3.35-.83,8.56-2.35,10.29,1.65.21.49.64.6,1.01.5.36.9-.91,1.39-1.76,1.97-1.85,1.1-3.11,2.75-3.79,4.75-.18.5-.36,1.09-.42,1.57,0,.11-.03.3.07.33h.01c.57-.52.81-1.57,1.2-2.27.98-2.09,2.6-3.76,4.74-4.47-1.26,1.58-2.13,4.97-1.81,6.59.08.1.13-.04.17-.13.11-.3.16-.73.21-1.07.25-1.91.93-3.87,1.92-5.55,1.13-.3,2.3-.43,2.91-1.41.35-.52.64-1.13,1.19-1.46,1.83-.97,3.88.61,5.31,1.67.26.17.59.51.85.57-.1-.33-.56-.85-.69-1.28-.07-.16-.12-.31-.16-.45,1.06.46,2.49.93,3.39,1.64.25.2.53.37.75.6.4.41.33.89.51,1.39.11.33.33-.05.38-.23.36-.94-.64-1.66-1.36-2.09-.06-.03-.11-.07-.16-.1-.45-.26-.9-.48-1.37-.7-.38-.17-.76-.35-1.15-.48-.14-.05-.64-.21-1.05-.28-.13-.39-.25-.71-.62-.89-1.46-.59-3.33-.45-4.81-.28-1.49.21-2.92.15-4.28-.59-.56-.33-1.09-.56-1.58-.73-2.31-1.41-5.55-.93-8.32-.25,6.03-3.2,11.68-7.04,16.5-11.97,1.62-1.73,3.29-3.41,5.03-5,4.7-4.08,9.91-8.3,16.15-9.43.18-.04.37-.04.55-.06.55,1.59.24,2.55.04,4.26-.13,1.1.03,2.77.67,4.41.43,1.1,1.58,1.82,2.13,2.88.94,1.77,1.38,3.87,2.47,5.57.9,1.35,2.1,2.83,3.74,3.22,1.11.22,2.24-.4,3.35-.53,1-.14,2.02.05,3.03,0,.73-.03,1.45-.18,2.07-.58.75-.46,1.37-1.14,2.26-1.3.64-.13,1.47-.02,2.25-.18,1.41-.24,2.64-1.44,2.68-2.89-.05-2.31.68-3.37,1.98-5.06.66-1.11,1.27-2.35,2.15-3.29.74-.77,1.83-1.22,2.59-2.01,1.27-1.22.49-3.2,1.1-4.72,1.03-2.32-.38-2.94-.86-4.96ZM282.47,39.24c.21-.17.33-.21.67-.23.17,0,.32,0,.44.05.33.22.55.34,1.01.37.36.08,1.16.06,1.35.34.03.11-.08.29-.19.46-.21.42-1.18.79-1.61.81-.57-.07-1.49-.28-1.91-.62-.13-.16.26-.32.18-.47-.04-.09-.22-.21-.28-.35-.08-.15.27-.23.34-.36ZM280.78,44.5c-.52-.85-.47-1.95-.12-2.95.2-.68.54-1,1.15-.66.29.13-.04.6.32.5.75-.25,1.76.05,2.49.14.29,0,.56-.13.8-.29.18-.14.54-.41.34.04-.56.98-1.04,1.93-1.33,3.05-.34,1.15-.78,1.83-1.73,2.4-.2.12-.48.28-.65.15l-.04-.03c-.35-.82-.69-1.59-1.23-2.35ZM238.7,53.88c2.1-5.71,4.68-11.17,8.1-16.25,3.71-5.56,8.1-10.59,13.32-14.88,1.85-1.56,3.85-2.93,6-4.05,1.17-.59,2.39-1.12,3.76-1.32,1.76-.24,3.22.54,3.86,2.15.49,1.12.59,2.29.59,3.46,0,2.59-.88,4.93-2.1,7.22-2,3.71-4.59,6.98-7.56,10-2.68,2.73-5.51,5.32-8.69,7.51-3.66,2.59-7.51,4.78-11.81,6.25-1.51.54-3.03.98-4.64,1.02-1.17.05-1.22-.05-.83-1.12ZM204.35,51.15c-.59,1.81-3.76,3.81-5.71,3.61.78-1.71,3.95-3.71,5.71-3.61ZM129.56,54.81c-1.56,2.49-3.07,5.03-5.32,6.98-.34.29-.73.54-1.27.93,0-1.07.19-1.85.49-2.54.88-2.24,2.15-4.15,4-5.71.34-.29.78-.49,1.17-.73.24-.15.59-.2.78.15.2.29.39.54.15.93ZM234.51,56.27c-2.63,2.2-4.93,4.68-7.47,6.93-.29.24-.63.49-.93.73-.19.15-.39.39-.63.24-.24-.1-.15-.39-.15-.59.05-1.07.39-2.1.78-3.07,1.07-2.49,2.59-4.64,4.78-6.34.54-.39,1.12-.68,1.76-.88.73-.24.88-.2,1.37.44.49.54.63,1.22.78,1.9.1.29-.05.49-.29.63ZM309.83,6.16c.23-.88,1.1-1.54,1.69-2.22,1.28-1.59,2.92-1.75,4.72-1.1l.06.02c1.78.72,3.73,1.42,5.08,2.81,1.76,1.44,3,3.3,2.11,5.65-.85,2.35-3.45,3.37-5.83,4.54-1.33.62-2.68,1.35-4.01,1.95-1.48.64-1.37-1-1.93-2.16-.74-1.69-2.25-3.25-2.46-5.09-.1-1,.49-2.12.53-3.05.04-.46-.06-.91.04-1.36ZM338.52,39.69c-.07,1.34-.64,2.91-2.04,3.31-4.29,1.04-8.3-1.94-12.55-2.1-2.76,0-5.65.51-8.12-1.08-.85-.47-1.75-.88-1.8-.77.81.91,2.71,1.6,3.86,2.07,1.99.7,4,.09,6.06.29,3.43.28,6.82,2.1,10.2,2.75,1.46.51-.16,1.97-.6,2.78-.88,1.24-2.05,2.48-2.38,3.96-.24,2.37-2.54,5.01-5.07,3.82-.76-.22-1.71-1.43-2.35-1.66-.12,0-.05.24.16.67.37.89,1.91,2.19,1.27,3.07-1.18,1.46-3.34,1.15-4.99,1.05-1.29-.1-2.47.69-3.76.55-3.78-.96-4.65-5.31-6.05-8.42-.66-1.52-2.11-2.48-2.57-4.05-.58-1.68-.14-2.92.21-4.05.21.34.84.67,1.23.84.77.33,1.36.18,1.91-.47-.02.1.38.35.5.33.26-.1.07-.41.09-.85,2.34.11,2.89-.42,1.63-1.59.37-.73.05-1.14-.95-1.24l.09-.43c.26-.02.38-.1.37-.23l.51-.82c-1.01-.3-.64-.24-.87-.75-.13-.3-.67-.05.13-.62l-1.19-.29c.41-1.12,1.41-.84,2.22-1.35l-.86-.08.23-.54c-1.19.47-1.38-.29-1.99-1.02.55-.73,1.91-1.49.23-1.46l.68-.72-1.25.36c.35-1.08-1.17.57-.82-.51l-.62.07.98-1.21c-.15-.23-.63.58-.7.02-.03-.24.9-.77.18-1.03l-.46.73c-.22.27-.79-.92-.81-1.07-.05-.36.4-.83.1-1.08-.24.36-.25.83-.49,1.19-.2.29-.45.02-.57.14-.26.26-.87,1.3-1.06,1.69-.03.06.07.43-.04.65-.22.46-.62.82-.77,1.35-.74-.05-1-.49-1.48-.85-.17-.13-.44-.54-.6-.21.49.62,1.47,1.18,1.77,1.92.24.58.07,1.92.16,2.73-.17,0-.32.02-.4.02-4.86.09-10.36-.56-9.94-6.67.11-1.38.85-2.49.93-3.87.12-1.24-.44-2.42-.42-3.66.02-1.44,1.12-2.66.97-4.1-.25-1.51.07-3.24,1.67-3.84,1.84-1.02,3.65.04,4.79,1.56,2.36,2.87,2.87,7.32,2.91,10.81.12.46.24-.47.27-.66.14-1.29.35-2.61.18-3.89-.46-2.3-1.34-4.82-2.67-6.67-1.29-1.77-3.8-3.35-3.95-5.68.04-1.14,1.3-1.94,2.16-2.94.71-.91,2.25-2.21,3.04-.67.51,1.12.55,2.43,1.01,3.57.64,2.01,1.65,4.11,2.88,5.89,1.06,1.77,1.75,3.95,1.26,6-.24,2.04-.53,4.19-1.27,6.16-.14.43-.17,1.19.36.65,1.48-2.02,1.88-4.63,2.84-6.9.52-1.29,1.63-2.1,2.79-2.81,2.84-2.14,7.19-1.92,8.91-5.62.64-.81.74-3.59,2.12-2.97,1.32.68,2.54,2.55,2.18,3.99-.57,1.62-2.53,1.82-3.72,2.95-1.68,1.41-3,3.24-4.24,5.05-1.64,2.23-2.49,4.85-2.35,7.59.18,1.42.52-.05.54-.6.16-2.03.47-4,1.61-5.72,1.94-2.93,4.29-6.3,7.87-7.07.71-.09,1.63-.14,2.13.43.36.96-1.25,1.46-1.86,1.95-.77.52-1.56,1.05-2.29,1.56-1.47.89-5.85,5.89-5.49,7.55.13.13.69-.98.97-1.5,1.79-2.58,3.9-5.38,7.01-6.44,1.18-.28,2.53-.59,3.73-.28.64.2,1.22.79,1.77,1.34.71.67,1.22,1.55,1.02,2.55-.1.74-.35,1.39-.39,2.13-.06.86.12,1.77-.08,2.63-.86,2.92-4.43,3.5-7.07,4.14-.43.13-4.01.4-2.49.84,2.02.16,4.07-.27,6.03-.79,1.82-.45,5.97-3.08,7.11-.76.28.89-.09,1.9.12,2.82.17.94.95,1.82,1.07,2.76.09,1.15-.54,2.32-.56,3.44Z"/>
  </g>
</svg>